:SAMPLES-PER-SECOND 30
:FRAME-RANGE 1-1390
:FULLY-SPECIFIED
:DEGREES
1217
root  -72.1904 37.7948 -9.90646 174.154 51.0703 -165.988
RightUpLeg  -87.4242 -11.7567 49.3726
RightLeg  120.291 1.56188 -1.77733
RightFoot  -35.5091 0.262605 2.35905
RightToes  6.35937e-011 1.2921e-014 -6.02303e-014
Spine  16.268 -3.06894 0.235734
Spine1  -1.71668 0.0791936 -6.71841
HEad  10.5325 -3.19878 9.06437
LeftShoulder1  3.59391 -10.4879 -19.84
LeftArm  45.3765 -28.4947 -66.4453
LeftForeArm  26.6894 -3.15901 -18.1809
LeftHand  -0.0139384 6.94377 1.37506
RightShoulder  2.55555 6.12926 20.8425
RightArm  3.60106 33.6718 95.3724
RightForeArm  115.541 -4.14506 8.99711
RightHand  2.06959 -20.12 -16.3807
LeftUpLeg  -4.89192 -6.42018 2.74485
LeftLeg  35.5145 -4.03701 -2.69903
LeftFoot  -21.0424 -0.18747 -3.69524
LeftToes  4.52251e-011 4.07896e-011 -5.42348e-012
1218
root  -72.3104 37.8146 -9.7867 173.822 50.6857 -165.644
RightUpLeg  -87.7122 -12.1798 48.8968
RightLeg  121.013 1.69271 -1.92106
RightFoot  -35.7492 0.223026 2.15997
RightToes  6.35937e-011 1.2921e-014 -6.02303e-014
Spine  16.2436 -3.09985 0.100803
Spine1  -1.7333 0.0323544 -6.81588
HEad  10.2732 -3.44479 9.53984
LeftShoulder1  3.6111 -10.4575 -20.036
LeftArm  45.1142 -28.0792 -66.5783
LeftForeArm  26.531 -3.03359 -18.203
LeftHand  -0.0139904 7.0152 1.60872
RightShoulder  2.53825 6.07015 20.8269
RightArm  3.73084 33.355 94.8025
RightForeArm  114.487 -4.2568 9.39571
RightHand  2.00656 -19.9555 -16.0863
LeftUpLeg  -4.51822 -5.7331 3.31528
LeftLeg  35.5219 -5.0412 -3.46587
LeftFoot  -21.8025 -0.256533 -4.22921
LeftToes  4.52251e-011 4.07896e-011 -5.42348e-012
1219
root  -72.4429 37.8512 -9.63801 173.611 50.3975 -165.284
RightUpLeg  -87.9381 -12.5255 48.6805
RightLeg  121.088 1.57254 -1.73045
RightFoot  -35.7419 0.22576 2.17304
RightToes  6.35937e-011 1.2921e-014 -6.02303e-014
Spine  16.3319 -3.06504 0.0793108
Spine1  -1.78666 0.108703 -7.06303
HEad  9.81632 -3.75196 9.91086
LeftShoulder1  3.63284 -10.4363 -20.2495
LeftArm  43.7777 -28.1761 -66.6539
LeftForeArm  27.9951 -2.61384 -18.1887
LeftHand  -0.0135192 6.99998 1.62289
RightShoulder  2.52474 6.05825 20.7088
RightArm  3.90807 33.177 94.2396
RightForeArm  113.642 -4.3457 9.71144
RightHand  1.92972 -19.566 -15.9196
LeftUpLeg  -4.23304 -4.98913 3.95606
LeftLeg  35.4145 -5.94556 -4.1366
LeftFoot  -22.5569 -0.311985 -4.55375
LeftToes  4.52251e-011 4.07896e-011 -5.42348e-012
1220
root  -72.5855 37.8989 -9.46925 173.588 50.3207 -165.025
RightUpLeg  -88.1479 -12.5907 48.665
RightLeg  120.714 1.34031 -1.39881
RightFoot  -35.6757 0.265691 2.36218
RightToes  6.35937e-011 1.2921e-014 -6.02303e-014
Spine  16.4224 -3.035 0.208118
Spine1  -2.02792 0.253871 -7.63056
HEad  9.52877 -4.02962 10.2992
LeftShoulder1  3.63341 -10.3863 -20.3575
LeftArm  43.2039 -28.3891 -66.5758
LeftForeArm  28.9212 -2.40591 -18.1698
LeftHand  -0.0170907 7.16078 1.55284
RightShoulder  2.51125 6.06322 20.5388
RightArm  4.07176 33.0546 94.0371
RightForeArm  112.482 -4.43934 9.96403
RightHand  1.91566 -19.3806 -16.0127
LeftUpLeg  -4.18974 -4.2231 4.52237
LeftLeg  35.2456 -6.63686 -4.62903
LeftFoot  -23.3858 -0.352233 -4.66702
LeftToes  4.52251e-011 4.07896e-011 -5.42348e-012
1221
root  -72.7389 37.9502 -9.31376 173.152 50.2019 -165.242
RightUpLeg  -88.3693 -12.8657 48.5537
RightLeg  120.361 1.34218 -1.42539
RightFoot  -35.7359 0.288787 2.46498
RightToes  6.35937e-011 1.2921e-014 -6.02303e-014
Spine  16.364 -3.0266 -0.0758991
Spine1  -1.91588 0.299855 -7.97624
HEad  8.96729 -3.97958 10.3331
LeftShoulder1  3.63816 -10.3696 -20.4296
LeftArm  42.9249 -28.5798 -66.3088
LeftForeArm  29.5255 -2.27786 -18.1555
LeftHand  -0.0160288 7.12785 1.51481
RightShoulder  2.51854 6.12429 20.436
RightArm  4.44284 33.023 93.8925
RightForeArm  111.078 -4.55888 10.3091
RightHand  1.83035 -19.332 -15.3966
LeftUpLeg  -3.97715 -3.83223 4.59031
LeftLeg  34.8383 -7.03177 -4.84872
LeftFoot  -24.1187 -0.414245 -4.99013
LeftToes  4.52251e-011 4.07896e-011 -5.42348e-012
